<?xml version="1.0" encoding="utf-8"?>
<!-- Generator: Adobe Illustrator 21.0.0, SVG Export Plug-In . SVG Version: 6.00 Build 0)  -->
<svg version="1.1" id="图层_1" xmlns="http://www.w3.org/2000/svg" xmlns:xlink="http://www.w3.org/1999/xlink" x="0px" y="0px"
	 viewBox="0 0 60 60" style="enable-background:new 0 0 60 60;" xml:space="preserve">
<style type="text/css">
	.st0{fill:#666666;}
</style>
<path class="st0" d="M55.8,34.2H4.2C1.9,34.2,0,32.3,0,30l0,0c0-2.3,1.9-4.2,4.2-4.2h51.7c2.3,0,4.2,1.9,4.2,4.2l0,0
	C60,32.3,58.1,34.2,55.8,34.2z"/>
<path class="st0" d="M25.8,55.8V4.2C25.8,1.9,27.7,0,30,0l0,0c2.3,0,4.2,1.9,4.2,4.2v51.7c0,2.3-1.9,4.2-4.2,4.2l0,0
	C27.7,60,25.8,58.1,25.8,55.8z"/>
</svg>
