<?xml version="1.0" encoding="utf-8"?>
<!-- Generator: Adobe Illustrator 21.0.0, SVG Export Plug-In . SVG Version: 6.00 Build 0)  -->
<svg version="1.1" id="图层_1" xmlns="http://www.w3.org/2000/svg" xmlns:xlink="http://www.w3.org/1999/xlink" x="0px" y="0px"
	 viewBox="0 0 60 60" style="enable-background:new 0 0 60 60;" xml:space="preserve">
<style type="text/css">
	.st0{fill:#FFFFFF;}
	.st1{fill:#01B3F0;}
</style>
<rect x="1.9" y="1.7" class="st0" width="55.9" height="55.8"/>
<path class="st1" d="M0,55.7C0,58.1,1.9,60,4.3,60h51.4c2.4,0,4.3-1.9,4.3-4.3V4.3C60,1.9,58.1,0,55.7,0H4.3C1.9,0,0,1.9,0,4.3V55.7
	z M49.3,21.2L29.2,44.5c-1.7,1.7-4.5,1.7-6.2,0L12.8,34.2c-1.7-1.7-1.7-4.5,0-6.2c1.7-1.7,4.5-1.7,6.2,0l7,7l17.3-20
	c1.7-1.7,4.5-1.7,6.2,0C51.1,16.7,51.1,19.5,49.3,21.2L49.3,21.2z"/>
</svg>
