<?xml version="1.0" standalone="no"?><!DOCTYPE svg PUBLIC "-//W3C//DTD SVG 1.1//EN" "http://www.w3.org/Graphics/SVG/1.1/DTD/svg11.dtd"><svg t="1510825007263" class="icon" style="" viewBox="0 0 1247 1024" version="1.1" xmlns="http://www.w3.org/2000/svg" p-id="13230" xmlns:xlink="http://www.w3.org/1999/xlink" width="73.06640625" height="60"><defs><style type="text/css"></style></defs><path d="M743.619048 637.968254s28.444444-52.825397 60.952381-150.349206c32.507937-101.587302 36.571429-154.412698 36.571428-154.412699l-256-4.063492V231.619048l308.825397-4.063492V158.47619h-308.825397V0h-150.349206v158.47619H146.285714v69.079366l288.507937-4.063493v105.650794H203.174603v56.888889h479.492064s-4.063492 44.698413-24.380953 101.587302-36.571429 105.650794-36.571428 105.650793-223.492063-89.396825-341.333334-89.396825C162.539683 503.873016 16.253968 556.698413 4.063492 711.111111c-12.190476 154.412698 65.015873 239.746032 182.857143 268.190476s219.428571 0 308.825397-52.825397c93.460317-48.761905 182.857143-166.603175 182.857143-166.603174l475.428571 260.063492s28.444444-48.761905 52.825397-97.52381 40.634921-101.587302 40.63492-101.587301l-503.873015-182.857143zM251.936508 898.031746c-166.603175 0-203.174603-93.460317-203.174603-158.47619s36.571429-138.15873 178.793651-150.349207c142.222222-12.190476 337.269841 113.777778 337.269841 113.777778s-142.222222 195.047619-312.888889 195.047619z" fill="#00A7FF" p-id="13231"></path></svg>