<?xml version="1.0" standalone="no"?><!DOCTYPE svg PUBLIC "-//W3C//DTD SVG 1.1//EN" "http://www.w3.org/Graphics/SVG/1.1/DTD/svg11.dtd"><svg t="1515204033468" class="icon" style="" viewBox="0 0 1106 1024" version="1.1" xmlns="http://www.w3.org/2000/svg" p-id="1730" xmlns:xlink="http://www.w3.org/1999/xlink" width="69.125" height="64"><defs><style type="text/css"></style></defs><path d="M1097.042648 563.061748c-11.411102 10.442364-29.818364 10.442364-41.228215 0L553.300949 61.784498 49.567483 562.263008c-11.352353 10.414865-29.759614 10.414865-41.053218 0-11.352353-10.416115-11.352353-27.279646 0-37.722011L517.211418 19.187551c9.871122-9.083632 24.330934-24.268436 35.567039-17.502273 11.351103-6.766163 26.94215 8.418641 36.872022 17.529772L1097.071398 525.313488C1108.393751 535.755852 1108.393751 552.645633 1097.042648 563.061748L1097.042648 563.061748 1097.042648 563.061748zM386.501863 446.380761c11.352353-10.416115 29.702115-10.416115 41.054468 0l124.640883 114.336017 125.424624-115.136007c11.468602-10.496114 29.992111-10.496114 41.460713 0 11.468602 10.522364 11.468602 27.518393 0 38.042006l-124.350887 114.12352 103.649906 0c16.056042 0 29.033373 11.907346 29.033373 26.639654 0 14.731059-12.977331 26.639654-29.033373 26.639654l-116.134744 0 0 79.918964 116.134744 0c16.056042 0 29.033373 11.907346 29.033373 26.639654 0 14.731059-12.977331 26.639654-29.033373 26.639654l-116.134744 0 0 106.557368c0 14.732309-12.977331 26.639654-29.033373 26.639654s-29.033373-11.907346-29.033373-26.639654l0-106.557368L408.045333 784.22388c-16.056042 0-29.033373-11.908596-29.033373-26.639654 0-14.732309 12.977331-26.639654 29.033373-26.639654L524.180077 730.944571l0-79.918964L408.045333 651.025607c-16.056042 0-29.033373-11.908596-29.033373-26.639654 0-14.732309 12.977331-26.639654 29.033373-26.639654l102.343673 0L386.473113 484.049023C375.179509 473.632907 375.179509 456.769377 386.501863 446.380761L386.501863 446.380761 386.501863 446.380761zM117.737848 970.700211l34.375804 0c-3.222459-8.364892-5.342431-17.236026-5.342431-26.639654L146.771222 597.746298 146.771222 571.106644 146.771222 544.466989c0-14.731059 12.978581-26.639654 29.034623-26.639654 16.054792 0 29.033373 11.908596 29.033373 26.639654l0 26.639654 0 26.639654 0 346.314259c0 23.09595 16.113541 26.319659 38.55575 26.639654l19.510997 0 580.67247 0 19.510997 0c22.384709-0.319996 38.557-3.543704 38.557-26.639654L901.646432 597.746298 901.646432 571.106644 901.646432 544.466989c0-14.731059 12.977331-26.639654 29.033373-26.639654 16.054792 0 29.033373 11.908596 29.033373 26.639654l0 25.973414 0 27.305896 0 346.314259c0 9.403628-2.089973 18.274763-5.342431 26.639654l34.375804 0c16.056042 0 29.033373 11.907346 29.033373 26.639654 0 14.731059-12.977331 26.639654-29.033373 26.639654l-116.134744 0-638.739216 0-116.134744 0c-16.056042 0-29.033373-11.907346-29.033373-26.639654C88.704475 982.607557 101.681806 970.700211 117.737848 970.700211L117.737848 970.700211 117.737848 970.700211z" p-id="1731"></path></svg>