<?xml version="1.0" standalone="no"?><!DOCTYPE svg PUBLIC "-//W3C//DTD SVG 1.1//EN" "http://www.w3.org/Graphics/SVG/1.1/DTD/svg11.dtd"><svg t="1510812679600" class="icon" style="" viewBox="0 0 1425 1024" version="1.1" xmlns="http://www.w3.org/2000/svg" p-id="6867" xmlns:xlink="http://www.w3.org/1999/xlink" width="83.49609375" height="60"><defs><style type="text/css"></style></defs><path d="M1351.575697 0 73.215613 0C32.75757 0 0 32.75757 0 73.134126l0 193.978594 1424.750567 0L1424.750567 73.134126C1424.79131 32.75757 1392.033741 0 1351.575697 0L1351.575697 0z" p-id="6868"></path><path d="M1175.768591 702.006127c-9.737636 0.162973-13.608244 0.040743-15.197231-0.12223-0.162973 0.733378-0.448176 1.996419-0.448176 1.996419l-3.463176 16.134325c0 0-8.311622 34.305813-8.759798 35.935543 8.474595-0.081486 12.019258-0.081486 13.404528 0.040743 0.407432-1.588987 2.363108-11.122906 2.403852-11.122906 0 0 1.670473-7.007838 1.75196-7.333784 0 0 0.529662-0.733378 1.018581-0.977838l0.814865 0c7.333784 0 15.604663 0 22.082839-4.76696 4.318784-3.300203 7.415271-8.107906 8.759798-13.93419 0.366689-1.466757 0.611149-3.177973 0.611149-4.88919 0-2.240879-0.448176-4.441014-1.75196-6.192973-3.300203-4.64473-9.859866-4.685473-17.478853-4.726217C1179.476226 701.965384 1175.768591 702.006127 1175.768591 702.006127L1175.768591 702.006127zM1184.365416 718.792345c-0.855608 3.544662-3.096487 6.600406-6.070744 8.026419-2.526081 1.263041-5.500338 1.344527-8.596825 1.344527l-2.037162 0 0.162973-0.855608c0 0 3.748379-16.134325 3.707635-16.052839l0.12223-0.855608 0.081486-0.651892 1.466757 0.162973c0 0 7.65973 0.733378 7.78196 0.733378C1184.03947 711.865993 1185.221024 714.880993 1184.365416 718.792345L1184.365416 718.792345z" p-id="6869"></path><path d="M1190.884335 812.949986l-2.89277 0 10.91919-36.057773 3.666892 0 1.059324-3.707635 0.12223 4.155811c-0.12223 2.526081 1.874189 4.848446 7.170811 4.400271l6.070744 0 2.118649-6.967095-2.322365 0c-1.263041 0-1.914933-0.325946-1.874189-0.977838l-0.081486-4.237298-11.285879 0 0 0c-3.707635 0.081486-14.586082 0.366689-16.745474 0.937095-2.648311 0.692635-5.541081 2.689054-5.541081 2.689054l1.100068-3.748379-10.633987 0-2.200135 7.456014-11.04142 36.546692-2.159392 0-2.159392 6.885609 21.105001 0-0.733378 2.363108 10.389528 0 0.733378-2.363108 2.852027 0L1190.884335 812.949986 1190.884335 812.949986zM1177.683524 813.031473l-8.433852 0 2.485338-8.067163 8.393109 0L1177.683524 813.031473 1177.683524 813.031473zM1182.40974 797.386066c0 0-2.607568 0.325946-4.318784 0.733378-1.711216 0.529662-4.929933 2.159392-4.929933 2.159392l2.89277-9.53392 8.433852 0L1182.40974 797.386066 1182.40974 797.386066zM1182.28751 784.225998c-1.711216 0.488919-4.848446 1.874189-4.848446 1.874189l2.729797-9.207974 8.393109 0-1.996419 6.722636C1186.606295 783.614849 1184.03947 783.777822 1182.28751 784.225998L1182.28751 784.225998z" p-id="6870"></path><path d="M1143.49994 802.153026c-0.162973 0.529662-0.366689 0.814865-0.692635 1.018581-0.366689 0.203716-0.855608 0.285203-1.670473 0.285203l-2.363108 0 0.162973-3.992838-9.656149 0-0.407432 19.393785c-0.040743 1.38527 0.12223 2.240879 1.100068 2.811284 0.977838 0.855608 4.196554 0.855608 8.433852 0.855608l6.03 0 2.200135-7.211555-5.296622 0.285203-1.792703 0.081486c-0.244459-0.081486-0.488919-0.203716-0.733378-0.448176s-0.611149-0.081486-0.529662-1.5075l0.040743-4.970676 5.541081-0.203716c2.974257 0 4.237298-0.937095 5.337365-1.874189 1.018581-0.855608 1.38527-1.914933 1.792703-3.300203l0.896351-4.359527-7.65973 0L1143.49994 802.153026 1143.49994 802.153026z" p-id="6871"></path><path d="M1190.884335 741.241873c-0.937095 4.196554-2.118649 11.774798 4.88919 14.463852 2.240879 0.937095 4.237298 1.222297 6.192973 1.140811 2.118649-0.12223 4.155811-1.181554 5.948514-2.729797-0.162973 0.651892-0.325946 1.263041-0.570405 1.874189l0.407432 0.407432c5.011419-0.203716 6.559663-0.203716 12.019258-0.162973l0.488919-0.366689c0.814865-4.64473 1.548243-9.207974 3.626149-18.049258 0.937095-4.237298 1.996419-8.515338 3.015-12.752636l-0.203716-0.488919c-5.663311 1.018581-7.089325 1.222297-12.508177 2.037162l-0.407432 0.325946c-0.081486 0.448176-0.12223 0.855608-0.203716 1.263041-0.855608-1.344527-2.077906-2.526081-3.952095-3.25946-2.444595-0.896351-8.026419 0.285203-12.834122 4.685473C1193.45116 732.808021 1191.82143 737.126805 1190.884335 741.241873L1190.884335 741.241873zM1202.699877 741.486333c1.140811-5.092906 2.526081-9.452433 6.111487-9.452433 2.281622 0 3.422433 2.037162 3.218716 5.581825-0.203716 0.896351-0.448176 1.833446-0.692635 2.933514-0.366689 1.5075-0.774122 2.974257-1.059324 4.400271-0.407432 1.059324-0.855608 2.118649-1.38527 2.770541-0.855608 1.303784-3.055743 2.159392-4.278041 2.159392-0.366689 0-2.566824 0-2.607568-3.25946C1201.925755 745.030995 1202.251701 743.319779 1202.699877 741.486333L1202.699877 741.486333z" p-id="6872"></path><path d="M1078.35149 740.671468c-0.896351 4.237298-2.118649 11.856285 4.88919 14.667569 2.240879 0.855608 5.296622 1.140811 7.333784 1.140811 5.174392 0 10.430271-1.38527 14.382366-5.622568 3.055743-3.381689 4.441014-8.474595 4.929933-10.552501 1.548243-6.926352 0.366689-10.145068-1.181554-12.100744-2.363108-3.015-6.478176-3.952095-10.756217-3.952095-2.566824 0-8.719055 0.244459-13.526758 4.685473C1080.918315 732.156129 1079.329328 736.515657 1078.35149 740.671468L1078.35149 740.671468zM1090.167031 740.956671c1.140811-5.255879 2.566824-9.574663 6.111487-9.574663 2.811284 0 2.974257 3.25946 1.75196 8.515338-0.244459 1.100068-1.222297 5.500338-2.607568 7.333784-0.896351 1.38527-2.118649 2.200135-3.381689 2.200135-0.366689 0-2.526081 0-2.566824-3.300203C1089.433653 744.419846 1089.759599 742.70863 1090.167031 740.956671L1090.167031 740.956671z" p-id="6873"></path><path d="M1085.074126 792.374647l6.437433 0-1.711216 5.785541-6.518919 0-2.118649 7.130068 6.437433 0-3.789122 12.54892c-0.529662 1.62973 0.244459 2.281622 0.733378 3.015 0.529662 0.814865 0.977838 1.263041 2.118649 1.5075 1.140811 0.244459 1.914933 0.448176 2.974257 0.448176l13.119325 0 2.322365-7.741217-5.826284 0.814865c-1.100068 0-4.237298-0.162973-3.911352-1.181554l2.770541-9.41169 11.652568 0 2.159392-7.007838-11.652568 0 1.792703-5.785541 11.367366 0 2.118649-6.804122-28.438786 0L1085.074126 792.374647 1085.074126 792.374647z" p-id="6874"></path><path d="M1108.379262 769.476943l-11.611825 0-2.89277 5.296622c-0.692635 1.181554-1.222297 1.914933-1.792703 2.281622-0.407432 0.285203-1.263041 0.407432-2.566824 0.407432l-1.548243 0-2.037162 6.804122 5.092906 0c2.485338 0 4.318784-0.896351 5.255879-1.344527 0.937095-0.529662 1.263041-0.203716 1.996419-0.896351l1.711216-1.466757 16.012096 0 2.159392-7.170811-11.693312 0L1108.379262 769.476943 1108.379262 769.476943z" p-id="6875"></path><path d="M1075.173517 730.567143c-2.770541 0.570405-4.5225 0.855608-6.315203 1.140811-1.711216 0.244459-3.463176 0.488919-6.111487 0.855608l-0.244459 0.203716-0.203716 0.162973c-0.285203 1.996419-0.488919 3.748379-0.855608 5.785541-0.325946 2.118649-0.855608 4.5225-1.588987 7.944933-0.651892 2.607568-0.896351 3.544662-1.222297 4.441014-0.366689 0.896351-0.814865 1.833446-1.38527 4.441014l0.12223 0.203716 0.162973 0.203716c2.526081-0.081486 4.237298-0.162973 5.907771-0.203716 1.711216-0.040743 3.463176 0 6.111487 0l0.244459-0.203716 0.285203-0.203716c0.407432-2.363108 0.488919-2.974257 0.733378-4.155811 0.244459-1.181554 0.651892-2.852027 1.62973-7.415271 0.488919-2.118649 0.937095-4.237298 1.5075-6.39669 0.529662-2.200135 0.977838-4.278041 1.548243-6.39669l-0.081486-0.285203L1075.173517 730.567143 1075.173517 730.567143z" p-id="6876"></path><path d="M991.609119 756.113158c6.315203 0 12.222974-1.303784 16.134325-3.789122 6.967095-4.074325 8.800541-10.511757 10.389528-16.134325l0.774122-2.89277c0 0 6.722636-27.135002 7.863446-30.638921 0-0.203716 0.040743-0.285203 0.081486-0.366689-9.207974 0.081486-11.856285 0-12.711893-0.244459-0.407432 1.588987-6.559663 30.190745-6.600406 30.190745-1.303784 5.867027-2.363108 9.941352-5.622568 12.630406-1.914933 1.548243-4.074325 2.322365-6.559663 2.322365-4.115068 0-6.437433-2.037162-6.844865-5.907771l-0.12223-1.303784 1.222297-7.78196c0 0 6.478176-26.116421 7.65973-29.538853 0.040743-0.203716 0.081486-0.285203 0.12223-0.366689-12.711893 0.12223-14.952771 0-15.115744-0.244459-0.040743 0.285203-0.407432 1.914933-0.407432 1.914933l-6.641149 29.37588-0.611149 2.526081-1.059324 8.148649c0 2.444595 0.488919 4.359527 1.426014 6.03C978.082362 755.339036 986.679187 756.113158 991.609119 756.113158L991.609119 756.113158z" p-id="6877"></path><path d="M1075.255003 721.848088c-2.526081-1.5075-7.007838-0.977838-9.941352 1.059324-3.015 2.037162-3.381689 4.88919-0.855608 6.39669 2.526081 1.426014 6.967095 0.977838 9.941352-1.059324C1077.373652 726.166872 1077.740341 723.314845 1075.255003 721.848088L1075.255003 721.848088z" p-id="6878"></path><path d="M1021.473919 755.583496l0.244459 0.407432c5.378108-0.244459 6.967095-0.244459 11.571082-0.162973l0.407432-0.407432c0.570405-3.015 0.733378-3.707635 1.955676-9.819122 0.692635-2.933514 1.914933-9.28946 2.526081-11.530339 1.140811-0.529662 2.322365-0.977838 3.381689-0.977838 0.366689 0 0.692635 0.040743 0.855608 0.12223l-26.320137 113.143994c-2.933514 12.54892 4.807703 22.734731 17.356623 22.734731l4.848446 0c-12.589663 0-20.249393-10.185811-17.356623-22.734731l21.105001-90.409263c3.626149-0.162973 5.337365-0.12223 9.16723-0.081486l0.570405-0.407432c0.855608-4.685473 1.018581-5.948514 2.526081-12.793379l0.774122-3.096487C1056.472367 733.378427 1057.165002 730.241197 1056.064935 727.674372c-1.059324-2.852027-3.829865-3.585406-6.192973-3.585406-0.12223 0-0.203716 0-0.325946 0l13.119325-56.429396c2.648311-11.204393 13.037839-20.656826 24.242231-22.408785l-0.162973 0-4.074325 0-0.692635 0c-11.163649 1.75196-21.553177 11.163649-24.242231 22.408785l-13.363785 57.325747c-0.651892 0.203716-1.222297 0.488919-1.874189 0.774122-0.937095 0.529662-1.914933 1.059324-2.811284 1.62973l0.855608-3.096487-0.488919-0.611149c-5.622568 1.181554-6.885609 1.344527-12.100744 2.037162l-0.407432 0.325946c-0.692635 5.011419-1.140811 8.759798-3.381689 18.619663C1023.266622 748.290455 1022.37027 751.957347 1021.473919 755.583496L1021.473919 755.583496z" p-id="6879"></path><path d="M1197.97366 790.704174l12.182231 0-1.792703 5.622568-12.30446 0-1.833446 6.15223 10.756217 0-8.107906 11.448852c-0.570405 0.855608-1.018581 1.140811-1.670473 1.38527-0.570405 0.244459-1.303784 0.651892-2.200135 0.651892l-2.974257 0-2.077906 6.763379 7.822703 0c4.074325 0 6.437433-1.874189 8.230136-4.278041l5.622568-7.65973 1.140811 7.741217c0.285203 1.466757 1.263041 2.322365 2.037162 2.648311 0.814865 0.366689 1.588987 1.018581 2.689054 1.100068 1.222297 0.040743 2.077906 0.081486 2.689054 0.081486l3.829865 0L1224.33454 814.864919l-1.426014 0c-0.896351 0-2.444595-0.12223-2.607568-0.448176-0.244459-0.366689-0.285203-0.855608-0.407432-1.62973l-1.222297-7.78196-4.970676 0 2.200135-2.566824 12.345204 0 1.874189-6.192973-11.367366 0 1.792703-5.622568 11.326622 0 2.118649-6.967095-33.776151 0L1197.97366 790.704174 1197.97366 790.704174z" p-id="6880"></path><path d="M0 950.865874c0 40.376557 32.839056 73.134126 73.215613 73.134126l1278.360084 0c40.4173 0 73.215613-32.75757 73.215613-73.134126L1424.79131 400.750567 0 400.750567 0 950.865874 0 950.865874zM933.957426 846.481677l41.639597-178.699877c2.89277-12.508177 15.360204-22.734731 27.909123-22.734731l84.379262 0c0.855608-0.081486 1.711216-0.162973 2.566824-0.162973l102.713723 0c1.222297 0 2.322365 0.081486 3.218716 0.285203l77.493654 0c12.467433 0 20.249393 10.226555 17.31588 22.734731l-41.598854 178.699877c-2.566824 11.163649-12.874866 20.534596-24.079258 22.327299-0.285203 0-0.529662 0.040743-0.814865 0.040743l-89.349938 0c-12.508177 0-20.249393-10.185811-17.31588-22.734731l5.500338-23.549596 2.648311 0 2.363108-7.944933-3.25946 0.325946 4.115068-17.356623 11.04142 0c2.281622 0 3.911352-0.040743 4.970676-0.12223 1.100068-0.12223 2.403852-0.611149 3.748379-1.263041 1.38527-0.774122 2.159392-1.588987 2.689054-2.526081 0.692635-0.937095 1.75196-2.933514 2.607568-6.070744l5.541081-18.252974-16.134325 0.081486c0 0-4.929933 0.814865-7.170811 1.588987-0.448176 0.162973-0.855608 0.407432-1.344527 0.733378l3.748379-16.093582c0.448176 0 0.855608 0 1.303784 0l0.611149-0.407432c0.774122-4.685473 0.937095-5.948514 2.485338-12.793379l0.733378-3.096487c1.263041-5.622568 1.996419-8.678311 1.303784-11.082163l14.17865-60.707436c2.607568-11.204393 12.997095-20.656826 24.201488-22.408785l-3.381689 0-0.733378 0c-11.122906 1.75196-21.512434 11.163649-24.242231 22.408785l-13.241555 56.999801c-1.018581-0.448176-2.240879-0.611149-3.340946-0.611149-1.588987 0-4.5225 0.448176-7.252298 1.711216-0.896351 0.529662-1.874189 1.059324-2.770541 1.62973l0.855608-3.096487-0.448176-0.611149c-5.704054 1.181554-6.885609 1.344527-12.141487 2.037162l-0.407432 0.325946c-0.651892 5.011419-1.100068 8.759798-3.381689 18.619663-0.855608 3.585406-1.711216 7.293041-2.566824 10.91919l0.285203 0.448176c5.296622-0.244459 6.885609-0.244459 11.530339-0.162973l0.366689-0.407432c0.611149-3.015 0.692635-3.707635 1.955676-9.819122 0.651892-2.933514 1.914933-9.28946 2.526081-11.530339 1.100068-0.529662 2.322365-0.977838 3.381689-0.977838 2.526081 0 2.281622 2.240879 2.200135 3.177973-0.12223 1.5075-1.018581 6.39669-2.037162 10.715474l-0.692635 2.729797c-0.488919 2.037162-0.937095 4.033581-1.426014 5.948514l0.244459 0.366689c2.566824-0.12223 4.278041-0.162973 5.948514-0.203716l-3.218716 13.730474-8.922771 0-13.93419 46.284327c-0.529662 1.75196-0.855608 3.015-0.855608 3.829865-0.040743 0.855608 1.018581 1.670473 1.75196 2.322365 0.855608 0.692635 2.077906 0.529662 3.25946 0.692635 1.222297 0.081486 2.974257 0.162973 5.418852 0.162973l0.896351 0-5.500338 23.590339c-2.933514 12.508177 4.76696 22.693988 17.356623 22.693988l-88.086898 0c-0.855608 0.081486-1.75196 0.12223-2.566824 0.12223l-89.390682 0C938.846616 869.134922 931.105399 858.949111 933.957426 846.481677L933.957426 846.481677zM1120.642979 812.216608l4.359527-14.423109 0.325946 0-4.115068 17.641825c-0.488919-0.12223-0.814865-0.407432-0.896351-0.651892C1120.031831 814.376 1120.27629 813.683365 1120.642979 812.216608L1120.642979 812.216608zM1126.835953 791.315322l0.162973-0.448176L1126.835953 791.315322 1126.835953 791.315322 1126.835953 791.315322zM1144.151832 788.01512l-0.977838 3.25946c-0.12223 0.081486-0.529662-0.162973-2.200135 0.040743l-9.982095 0 0.814865-3.300203L1144.151832 788.01512 1144.151832 788.01512zM1133.028926 782.474038l1.222297-5.337365 13.282298 0-1.140811 3.911352c0 0-7.741217-0.081486-9.045001 0.162973C1135.71798 781.4962 1134.21048 781.985119 1133.028926 782.474038L1133.028926 782.474038zM400.424621 534.59213c0-12.508177 10.185811-22.571758 22.734731-22.571758l43.55453 0c12.589663 0 22.775474 10.063582 22.775474 22.571758l0 66.126288c0 12.467433-10.185811 22.612501-22.775474 22.612501l-43.55453 0c-12.54892 0-22.734731-10.145068-22.734731-22.612501L400.424621 534.59213 400.424621 534.59213zM245.233597 534.59213c0-12.508177 10.185811-22.571758 22.734731-22.571758l43.55453 0c12.54892 0 22.734731 10.063582 22.734731 22.571758l0 66.126288c0 12.467433-10.185811 22.612501-22.734731 22.612501L267.927585 623.33092c-12.54892 0-22.734731-10.145068-22.734731-22.612501L245.192854 534.59213 245.233597 534.59213zM89.105479 534.59213c0-12.508177 10.185811-22.571758 22.734731-22.571758l43.55453 0c12.54892 0 22.734731 10.063582 22.734731 22.571758l0 66.126288c0 12.467433-10.185811 22.612501-22.734731 22.612501L111.799467 623.33092c-12.54892 0-22.734731-10.145068-22.734731-22.612501L89.064736 534.59213 89.105479 534.59213z" p-id="6881"></path><path d="M1225.067919 773.795727c-0.285203 0.407432-0.611149 0.692635-0.896351 0.774122-0.407432 0.203716-0.855608 0.244459-1.588987 0.244459l-1.303784 0-2.118649 6.722636 6.967095 0.081486c4.155811 0 6.641149-1.914933 8.026419-4.400271l30.027772-52.640274-0.448176-0.529662c-5.622568 1.100068-6.559663 1.303784-11.652568 1.996419l-0.366689 0.366689c-0.081486 0.040743-0.081486 0.162973-0.12223 0.244459l0-0.081486c-3.829865 8.800541-3.707635 6.885609-6.804122 13.771217 0-0.325946 0-0.529662-0.040743-0.855608l-0.774122-14.912028-0.488919-0.529662c-5.867027 1.100068-5.948514 1.303784-11.326622 1.996419l-0.448176 0.366689c-0.040743 0.203716-0.040743 0.407432-0.081486 0.611149l0.040743 0.081486c0.692635 3.422433 0.570405 2.648311 1.140811 8.067163 0.366689 2.566824 0.774122 5.296622 1.018581 7.944933 0.529662 4.318784 0.855608 6.518919 1.466757 13.200812-3.626149 5.948514-4.481757 8.230136-7.944933 13.486014L1225.067919 773.795727 1225.067919 773.795727z" p-id="6882"></path></svg>