<?xml version="1.0" encoding="utf-8"?>
<!-- Generator: Adobe Illustrator 21.0.0, SVG Export Plug-In . SVG Version: 6.00 Build 0)  -->
<svg version="1.1" id="图层_1" xmlns="http://www.w3.org/2000/svg" xmlns:xlink="http://www.w3.org/1999/xlink" x="0px" y="0px"
	 viewBox="0 0 60 60" style="enable-background:new 0 0 60 60;" xml:space="preserve">
<style type="text/css">
	.st0{fill:#FF4249;}
</style>
<path class="st0" d="M55.3,12.3L44,1c-0.6-0.6-1.5-1-2.3-1H19.5c-2.2,0-4,1.6-4.4,3.7h-4.6c-3.7,0-6.7,3-6.7,6.7v42.8
	c0,3.7,3,6.7,6.7,6.7h35.4c3.7,0,6.7-3,6.7-6.7v-4.7c2.1-0.4,3.6-2.2,3.6-4.3V14.6C56.3,13.8,55.9,12.9,55.3,12.3z M28.2,22.5h14.9
	c1,0,1.9,0.8,1.9,1.9c0,1-0.8,1.9-1.9,1.9H28.2c-1,0-1.9-0.8-1.9-1.9C26.3,23.3,27.1,22.5,28.2,22.5z M28.2,30h14.9
	c1,0,1.9,0.8,1.9,1.9c0,1-0.8,1.9-1.9,1.9H28.2c-1,0-1.9-0.8-1.9-1.9S27.1,30,28.2,30z M28.2,37.6h7.5c1,0,1.9,0.8,1.9,1.9
	c0,1-0.8,1.9-1.9,1.9h-7.5c-1,0-1.9-0.8-1.9-1.9C26.3,38.4,27.1,37.6,28.2,37.6z M48.9,53.3c0,1.6-1.3,3-3,3l-35.4,0
	c-1.6,0-3-1.3-3-3V10.5c0-1.6,1.3-3,3-3h4.6v36.7c0,2.4,2,4.4,4.4,4.4h29.4V53.3z M41.5,13.1V3.8l9.3,9.3H41.5z"/>
</svg>
