<?xml version="1.0" encoding="utf-8"?>
<!-- Generator: Adobe Illustrator 21.0.0, SVG Export Plug-In . SVG Version: 6.00 Build 0)  -->
<svg version="1.1" id="图层_1" xmlns="http://www.w3.org/2000/svg" xmlns:xlink="http://www.w3.org/1999/xlink" x="0px" y="0px"
	 viewBox="0 0 60 60" style="enable-background:new 0 0 60 60;" xml:space="preserve">
<style type="text/css">
	.st0{fill:#F06C01;}
</style>
<path class="st0" d="M41.9,2.7c-0.7-1.5-2.5-2.1-4-1.4L16.5,12.3l27.2-5.8C42.6,4.3,41.9,2.7,41.9,2.7L41.9,2.7z M53.3,12.5
	c-0.3-1.6-1.8-2.7-3.4-2.4l-33.4,6h37.5C53.5,13.9,53.3,12.5,53.3,12.5L53.3,12.5z M59.9,22.3c0-1.8-1.3-3.2-3-3.2H3
	c-1.6,0-3,1.5-3,3.2v7.3h59.9L59.9,22.3L59.9,22.3z M59.9,45.2V33.6H0v22.3c0,1.7,1.3,3.2,3,3.2h31c0-0.4,21.6,0,21.9,0
	c3.1-0.1,4-2.4,4-4.2C59.8,51.5,60,50.1,59.9,45.2L59.9,45.2z M23.5,44.9c0,1.2-0.6,2.2-1.3,2.2h-7.9c-0.7,0-1.3-1-1.3-2.2v0
	c0-1.2,0.6-2.2,1.3-2.2h7.9C22.9,42.6,23.5,43.6,23.5,44.9L23.5,44.9z M38.5,44.9c0,1.2-0.6,2.2-1.3,2.2h-7.9c-0.7,0-1.3-1-1.3-2.2
	v0c0-1.2,0.6-2.2,1.3-2.2h7.9C37.9,42.6,38.5,43.6,38.5,44.9L38.5,44.9z M53.5,44.9c0,1.2-0.6,2.2-1.3,2.2h-7.9
	c-0.7,0-1.3-1-1.3-2.2v0c0-1.2,0.6-2.2,1.3-2.2h7.9C52.9,42.6,53.5,43.6,53.5,44.9L53.5,44.9z"/>
</svg>
