<?xml version="1.0" standalone="no"?><!DOCTYPE svg PUBLIC "-//W3C//DTD SVG 1.1//EN" "http://www.w3.org/Graphics/SVG/1.1/DTD/svg11.dtd"><svg t="1510812652302" class="icon" style="" viewBox="0 0 1024 1024" version="1.1" xmlns="http://www.w3.org/2000/svg" p-id="6165" xmlns:xlink="http://www.w3.org/1999/xlink" width="60" height="60"><defs><style type="text/css"></style></defs><path d="M658.452 175.169c-8.971-18.346-31.186-25.887-49.122-16.715l-264.369 134.53 336.524-71.34c-13.654-27.519-23.030-46.475-23.030-46.475zM799.504 296.244c-3.465-19.975-22.625-33.226-42.602-29.761l-412.962 73.58h463.307c-4.686-26.293-7.747-43.824-7.747-43.824zM881.444 416.707c0-22.014-16.51-39.949-37.098-39.949h-666.932c-20.384 0-37.098 17.937-37.098 39.949v89.89h740.925l0.205-89.89zM881.444 699.83v-142.883h-741.126v275.782c0 21.607 16.51 39.34 37.098 39.34h383.405c-0.205-4.483 266.816-0.205 271.092-0.406 37.911-1.428 49.938-29.148 49.326-51.366-1.019-42.397 1.223-59.113 0.205-120.463zM431.183 696.161c0 15.085-7.134 27.313-16.103 27.313h-97.839c-8.765 0-16.103-12.233-16.103-27.313v-0.613c0-15.085 7.134-27.313 16.103-27.313h97.839c8.765 0 16.103 12.233 16.103 27.313v0.613zM616.26 696.161c0 15.085-7.134 27.313-15.9 27.313h-97.228c-8.765 0-15.9-12.233-15.9-27.313v-0.613c0-15.085 7.134-27.313 15.9-27.313h97.228c8.765 0 15.9 12.233 15.9 27.313v0.613zM801.95 696.161c0 15.085-7.134 27.313-16.103 27.313h-97.839c-8.765 0-16.103-12.233-16.103-27.313v-0.613c0-15.085 7.134-27.313 16.103-27.313h97.839c8.765 0 16.103 12.233 16.103 27.313v0.613z" p-id="6166"></path></svg>