<?xml version="1.0" standalone="no"?><!DOCTYPE svg PUBLIC "-//W3C//DTD SVG 1.1//EN" "http://www.w3.org/Graphics/SVG/1.1/DTD/svg11.dtd"><svg t="1513229820017" class="icon" style="" viewBox="0 0 1024 1024" version="1.1" xmlns="http://www.w3.org/2000/svg" p-id="2107" xmlns:xlink="http://www.w3.org/1999/xlink" width="32" height="32"><defs><style type="text/css"></style></defs><path d="M994.612398 229.108522l-85.165661 0L739.111423 229.108522l-454.222846 0L114.554261 229.108522 29.386604 229.108522C13.695251 229.108522 0.998051 216.355431 0.998051 200.718971c0-15.691353 12.697201-28.389552 28.388554-28.389552l198.722869 0L228.109474 58.773209C228.110472 27.390503 253.504873 1.996101 284.887579 1.996101l454.222846 0c31.331805 0 56.778105 25.394402 56.778105 56.777107l0 113.556211 198.722869 0c15.694347 0 28.389552 12.699197 28.389552 28.389552C1023.001949 216.355431 1010.305747 229.108522 994.612398 229.108522zM739.111423 115.552312c0-31.383704-25.448296-56.779103-56.778105-56.779103L341.666682 58.773209c-31.383704 0-56.779103 25.3954-56.779103 56.779103l0 56.777107c170.334316 0 278.565926 0 454.222846 0L739.110425 115.552312zM398.443789 768.499025 398.443789 371.053287c0-15.691353 12.698199-28.388554 28.389552-28.388554s28.389552 12.697201 28.389552 28.388554L455.222893 768.499025c0 15.635462-12.698199 28.387556-28.389552 28.387556S398.443789 784.134487 398.443789 768.499025zM568.778105 768.499025 568.778105 371.053287c0-15.691353 12.700195-28.388554 28.389552-28.388554 15.692351 0 28.387556 12.697201 28.387556 28.388554L625.555212 768.499025c0 15.635462-12.696203 28.387556-28.387556 28.387556C581.477302 796.886581 568.778105 784.134487 568.778105 768.499025zM228.110472 910.444788c0 31.381708 25.394402 56.778105 56.778105 56.778105l454.222846 0c31.331805 0 56.778105-25.3954 56.778105-56.778105L795.889528 342.664733l56.778105 0 0 624.557162c0 31.383704-25.448296 56.778105-56.778105 56.778105L228.110472 1024c-31.382706 0-56.779103-25.393404-56.779103-56.778105L171.331368 342.664733l56.779103 0L228.110472 910.444788z" p-id="2108" data-spm-anchor-id="a313x.7781069.0.i0."></path></svg>