<?xml version="1.0" standalone="no"?><!DOCTYPE svg PUBLIC "-//W3C//DTD SVG 1.1//EN" "http://www.w3.org/Graphics/SVG/1.1/DTD/svg11.dtd"><svg t="1510969301792" class="icon" style="" viewBox="0 0 1024 1024" version="1.1" xmlns="http://www.w3.org/2000/svg" p-id="2416" xmlns:xlink="http://www.w3.org/1999/xlink" width="60" height="60"><defs><style type="text/css"></style></defs><path d="M717.768969 418.721547c-11.530614-11.530614-30.227442-11.530614-41.759079 0l-55.067176 55.067176-55.067176-55.067176c-11.530614-11.531638-30.227442-11.531638-41.760103 0-11.530614 11.530614-11.530614 30.227442 0 41.759079l55.067176 55.067176-54.04387 54.04387c-11.530614 11.531638-11.530614 30.227442 0 41.759079 11.532661 11.531638 30.227442 11.531638 41.760103 0l54.04387-54.04387 54.04387 54.04387c11.531638 11.531638 30.227442 11.531638 41.759079 0s11.531638-30.227442 0-41.759079l-54.04387-54.04387 55.067176-55.067176C729.300606 448.950012 729.300606 430.253184 717.768969 418.721547z" fill="#333333" p-id="2417"></path><path d="M879.952768 229.161237 358.398158 229.161237c-7.309476-3.050476-283.681968 261.067924-283.681968 261.067924l-3.719718 3.719718c-3.234671 3.234671-5.114484 7.389294-5.709025 11.911284-2.443655 8.468882-1.079588 16.95209 4.489244 22.518876l264.783549 265.61959 545.392528 0c39.559994 0 71.631434-31.223119 71.631434-69.736271L951.584202 298.897507C951.584202 260.383332 919.512762 229.161237 879.952768 229.161237zM900.420939 687.8521c0 31.921014-29.576619 57.798381-66.060555 57.798381L373.173676 745.650481c-0.2415-0.273223-0.490164-0.540306-0.74906-0.800225L137.503189 509.927805l232.41842-232.41842 464.438775 0c36.482913 0 66.060555 25.877367 66.060555 57.797357L900.420939 687.8521z" fill="#333333" p-id="2418"></path></svg>