<?xml version="1.0" standalone="no"?><!DOCTYPE svg PUBLIC "-//W3C//DTD SVG 1.1//EN" "http://www.w3.org/Graphics/SVG/1.1/DTD/svg11.dtd"><svg t="1510988508524" class="icon" style="" viewBox="0 0 1024 1024" version="1.1" xmlns="http://www.w3.org/2000/svg" p-id="5267" xmlns:xlink="http://www.w3.org/1999/xlink" width="60" height="60"><defs><style type="text/css"></style></defs><path d="M512 0a512 512 0 1 0 512 512A512 512 0 0 0 512 0z m203.64 677A27.307 27.307 0 1 1 677 715.64L512 550.638l-165 165a27.307 27.307 0 0 1-38.64-38.638L473.362 512l-165-165a27.307 27.307 0 0 1 38.638-38.64L512 473.362l165-165a27.307 27.307 0 1 1 38.64 38.638L550.638 512z" fill="#ff4249" p-id="5268"></path></svg>