<?xml version="1.0" standalone="no"?><!DOCTYPE svg PUBLIC "-//W3C//DTD SVG 1.1//EN" "http://www.w3.org/Graphics/SVG/1.1/DTD/svg11.dtd"><svg t="1512982142538" class="icon" style="" viewBox="0 0 1025 1024" version="1.1" xmlns="http://www.w3.org/2000/svg" p-id="4019" xmlns:xlink="http://www.w3.org/1999/xlink" width="32.03125" height="32"><defs><style type="text/css"></style></defs><path d="M970.588 144.706H52.941C23.53 144.706 0 168.236 0 197.647v630.588c0 29.412 23.53 52.941 52.941 52.941h918.824c29.411 0 52.94-23.529 52.94-52.94V196.47c-1.176-28.236-24.705-51.765-54.117-51.765zM478.824 712.94c-1.177 5.883-2.353 11.765-4.706 14.118-1.177 2.353-5.883 4.706-12.942 5.882-7.058 2.353-15.294 3.53-25.882 5.883-10.588 2.352-22.353 3.529-34.118 4.705-12.94 1.177-24.705 3.53-37.647 3.53-12.94 1.176-24.705 2.353-36.47 2.353-11.765 1.176-22.353 1.176-30.588 1.176-9.412 0-18.824 0-30.589-1.176-11.764-1.177-23.53-1.177-36.47-2.353-12.941-1.177-24.706-2.353-36.47-3.53-11.766-1.176-23.53-2.353-32.942-4.705-10.588-1.177-18.824-3.53-25.882-4.706-7.06-1.177-11.765-3.53-12.942-4.706-2.352-2.353-4.705-10.588-7.058-22.353-2.353-12.941-1.177-28.235 1.176-48.235 2.353-11.765 5.882-20 14.118-25.883 7.059-5.882 16.47-10.588 25.882-14.117 10.588-3.53 20-7.06 30.588-9.412 10.589-2.353 20-7.06 28.236-11.765 5.882-4.706 11.764-8.235 15.294-11.765 3.53-3.53 5.882-7.058 7.059-10.588 1.176-3.53 2.353-7.059 2.353-11.765v-12.94c-1.177-7.06-3.53-12.942-7.06-16.471-4.705-3.53-9.411-8.236-14.117-11.765-2.353-2.353-4.706-4.706-7.059-9.412-2.353-3.53-3.53-8.235-4.706-11.765-1.176-4.705-2.353-9.411-4.706-14.117-2.352-1.177-4.705-2.353-5.882-3.53-2.353-1.176-3.53-3.529-5.882-5.882-2.353-2.353-3.53-7.059-5.883-11.765s-2.353-9.411-2.353-14.117c0-4.706 1.177-8.236 2.353-10.589 1.177-3.529 3.53-7.058 5.883-9.411 0-11.765 0-23.53 1.176-35.294 1.177-10.589 3.53-20 7.06-31.765s8.234-21.177 14.117-30.588c5.882-8.236 11.764-15.294 18.823-21.177 7.06-5.882 14.118-9.412 22.353-12.941 7.059-3.53 15.294-4.706 22.353-5.882 7.059-1.177 14.118-1.177 21.177-1.177 18.823 0 34.117 3.53 48.235 11.765 14.118 7.059 24.706 15.294 31.765 24.706 8.235 9.412 14.117 20 17.647 32.94 3.53 11.766 7.058 23.53 8.235 32.942 2.353 11.765 2.353 24.706 2.353 36.47 2.353 1.177 3.53 3.53 4.706 5.883 1.176 2.353 2.353 4.706 3.53 8.235 1.176 3.53 1.176 7.06 0 12.942-1.177 5.882-2.354 11.764-4.707 15.294-2.353 3.53-4.706 7.058-5.882 9.411-2.353 2.353-5.882 3.53-8.235 4.706-1.177 5.883-2.353 10.589-4.706 14.118-1.177 3.53-3.53 8.235-5.883 11.765-2.353 3.53-4.705 7.058-7.058 8.235-2.353 2.353-5.883 4.706-8.236 5.882-2.353 2.353-4.706 3.53-5.882 5.883-2.353 2.353-3.53 4.706-4.706 7.058-1.176 2.353-2.353 5.883-3.53 9.412-1.176 4.706-1.176 9.412-1.176 14.118 0 4.706 1.177 9.412 3.53 14.118 2.353 4.705 5.882 9.411 10.588 12.94 4.706 4.707 11.765 8.236 20 11.765 7.059 3.53 15.294 5.883 24.706 8.236 9.411 2.353 17.647 4.706 25.882 8.235 8.235 3.53 16.47 7.059 22.353 11.765 7.059 4.706 11.765 11.764 14.118 18.823 1.176 4.706 2.353 10.588 3.53 18.824 1.176 7.059 1.176 14.117 1.176 21.176 2.352 8.236 1.176 15.294 0 22.353z m409.411-40H600c-12.941 0-23.53-10.588-23.53-23.53s10.589-23.529 23.53-23.529h288.235c12.941 0 23.53 10.589 23.53 23.53s-10.589 23.53-23.53 23.53z m0-143.53H600c-12.941 0-23.53-10.587-23.53-23.529s10.589-23.53 23.53-23.53h288.235c12.941 0 23.53 10.59 23.53 23.53s-10.589 23.53-23.53 23.53z m0-144.705H600c-12.941 0-23.53-10.588-23.53-23.53s10.589-23.529 23.53-23.529h288.235c12.941 0 23.53 10.588 23.53 23.53s-10.589 23.529-23.53 23.529z" p-id="4020" data-spm-anchor-id="a313x.7781069.0.i12."></path></svg>