<?xml version="1.0" encoding="utf-8"?>
<!-- Generator: Adobe Illustrator 21.0.0, SVG Export Plug-In . SVG Version: 6.00 Build 0)  -->
<svg version="1.1" id="图层_1" xmlns="http://www.w3.org/2000/svg" xmlns:xlink="http://www.w3.org/1999/xlink" x="0px" y="0px"
	 viewBox="0 0 60 60" style="enable-background:new 0 0 60 60;" xml:space="preserve">
<style type="text/css">
	.st0{fill:#666666;}
</style>
<path class="st0" d="M46.6,0H13.4C12.1,0,11,1.1,11,2.4v55.3c0,1.3,1.1,2.4,2.4,2.4h33.2c1.3,0,2.4-1.1,2.4-2.4V2.4
	C49,1.1,47.9,0,46.6,0L46.6,0z M28,3.2h4c0.7,0,1.3,0.6,1.3,1.3c0,0.7-0.6,1.3-1.3,1.3h-4c-0.7,0-1.3-0.6-1.3-1.3
	C26.6,3.8,27.2,3.2,28,3.2L28,3.2z M32.6,57.1h-5.3v-5.3h5.3V57.1L32.6,57.1z M44.9,47.9c0,1.3-1.1,2.4-2.4,2.4H17.4
	c-1.3,0-2.4-1.1-2.4-2.4l0-38c0-1.3,1.1-2.4,2.4-2.4h25.1c1.3,0,2.4,1.1,2.4,2.4V47.9L44.9,47.9z"/>
</svg>
