<?xml version="1.0" encoding="utf-8"?>
<!-- Generator: Adobe Illustrator 21.0.0, SVG Export Plug-In . SVG Version: 6.00 Build 0)  -->
<svg version="1.1" id="图层_1" xmlns="http://www.w3.org/2000/svg" xmlns:xlink="http://www.w3.org/1999/xlink" x="0px" y="0px"
	 viewBox="0 0 60 60" style="enable-background:new 0 0 60 60;" xml:space="preserve">
<style type="text/css">
	.st0{fill:#01B3F0;}
</style>
<path class="st0" d="M49.6,17.9l2.6-2.6c0.6-0.6,0.6-1.5,0-2.1c-0.6-0.6-1.5-0.6-2.1,0l-2.4,2.4c-4.5-4.8-10.5-7.6-17-8V4.4h5.6
	c0.8,0,1.5-0.7,1.5-1.5c0-0.8-0.7-1.5-1.5-1.5H22.8c-0.8,0-1.5,0.7-1.5,1.5c0,0.8,0.7,1.5,1.5,1.5h4.7v3.2C21,8,14.9,10.8,10.4,15.7
	l-2.5-2.5c-0.6-0.6-1.5-0.6-2.1,0s-0.6,1.5,0,2.1L8.5,18c-3.2,4.3-4.9,9.7-4.9,15.1c0,14.1,11.4,25.5,25.5,25.5s25.5-11.4,25.5-25.5
	C54.5,27.6,52.8,22.3,49.6,17.9z M20.4,38.5l5-4.8c-0.2-0.4-0.2-0.9-0.2-1.4c0-2.2,1.8-4,4-4s4,1.8,4,4c0,2.2-1.8,4.1-4,4.1
	c-0.6,0-1.2-0.2-1.8-0.4l-4.9,4.7c-0.3,0.3-0.7,0.4-1.1,0.4c-0.8,0-1.5-0.7-1.5-1.5C19.9,39.2,20.1,38.7,20.4,38.5z M28.8,53.1
	C28.8,53.1,28.8,53.1,28.8,53.1C28.8,53.1,28.8,53.1,28.8,53.1c-6.1,0-11.8-2.7-15.7-7.4c-0.6-0.8-0.5-1.9,0.2-2.5
	c0.4-0.3,0.9-0.4,1.3-0.4c0.5,0,0.9,0.3,1.2,0.6c3.2,3.9,7.9,6.2,13,6.2h0c9.3,0,16.8-7.6,16.8-16.8s-7.6-16.8-16.8-16.8
	c-0.5,0-0.9-0.2-1.3-0.5C27.2,15,27,14.5,27,14c0-1,0.8-1.8,1.8-1.8c11.2,0,20.4,9.2,20.4,20.4S40.1,53.1,28.8,53.1z"/>
<path class="st0" d="M29.3,31.3c-0.6,0-1,0.5-1,1c0,0.6,0.4,1,1.1,1c0.5,0,1-0.5,1-1.1C30.2,31.7,29.8,31.3,29.3,31.3z"/>
</svg>
