<?xml version="1.0" standalone="no"?><!DOCTYPE svg PUBLIC "-//W3C//DTD SVG 1.1//EN" "http://www.w3.org/Graphics/SVG/1.1/DTD/svg11.dtd"><svg t="1511493427287" class="icon" style="" viewBox="0 0 1024 1024" version="1.1" xmlns="http://www.w3.org/2000/svg" p-id="4046" xmlns:xlink="http://www.w3.org/1999/xlink" width="32" height="32"><defs><style type="text/css"></style></defs><path d="M295.344989 89.860202c8.996135 6.748004 18.178912 14.428014 27.543514 23.042436 9.370623 8.621647 17.798403 18.5534 25.296587 29.797665 3.746082 5.993008 8.241139 12.736196 13.489988 20.233176 5.245237 7.492163 10.115986 14.989143 14.61586 22.481306 5.242828 8.241139 10.488065 16.861582 15.732098 25.851696l232.698981 0c5.244033-7.493367 10.113578-15.364835 14.609839-23.605974 3.744877-6.743188 7.865447-13.485171 12.365321-20.239196 4.49867-6.743188 8.616831-12.728971 12.364116-17.981433 7.499388-10.486861 14.987939-20.419818 22.481306-29.78442 7.49698-9.370623 18.366758-18.552195 32.606925-27.543514 5.986987-3.750898 11.051603-8.621647 15.175785-14.61586 4.119365-5.993008 6.743188-11.990833 7.865447-17.985045 1.123463-5.999029 0.374488-11.806599-2.246926-17.423916-2.629843-5.61852-7.680009-9.925732-15.176989-12.928858-6.748004-2.249335-12.553167-2.997106-17.423916-2.249335-4.871953 0.751384-9.74511 2.061489-14.617064 3.933928-4.869545 1.879664-9.926936 3.933928-15.16856 6.182058-5.248849 2.254151-11.624774 3.378819-19.116937 3.378819s-13.673017-1.313717-18.546175-3.933928c-4.875566-2.629843-9.369419-5.812387-13.492396-9.559673-4.118161-3.743673-8.428985-7.676397-12.921634-11.805395-4.496261-4.119365-10.492882-7.301909-17.99227-9.557265-14.984327-5.993008-26.973955-7.116471-35.972498-3.37039-8.98891 3.746082-17.979024 9.743906-26.973955 17.99227-7.492163 7.492163-13.483967 12.739808-17.986249 15.736914-2.246926 1.493134-4.121774 2.243314-5.619725 2.243314-4.501078-2.243314-8.621647-4.869545-12.366525-7.865447-3.747286-2.248131-7.305521-4.688924-10.678319-7.306726-3.369186-2.62021-6.554138-5.803958-9.551244-9.557265-5.999029-5.994212-14.995164-9.925732-26.987201-11.805395-11.986016-1.866418-22.85459 0.18905-32.594884 6.188079-12.741012 8.23873-21.731127 15.174581-26.982384 20.795509-5.244033 5.61852-13.10948 9.551244-23.60477 11.805395-5.993008 1.49193-12.54835 1.117443-19.670842-1.124667-7.122492-2.254151-14.428014-4.501078-21.918973-6.741984-7.498184-2.252947-14.61586-3.747286-21.36266-4.501078-6.741984-0.748975-12.736196 0.753792-17.981433 4.501078-10.494086 8.239935-13.870496 18.165666-10.124415 29.785624C278.863916 73.934237 285.613124 83.118218 295.344989 89.860202L295.344989 89.860202zM904.063387 625.50171c-5.620929-37.089941-15.553885-69.883508-29.78442-98.362639-14.241372-28.468294-30.917516-53.390393-50.030841-74.754257-19.112121-21.350618-37.657091-39.905222-55.644545-55.643341-21.731127-17.980229-40.842043-35.034473-57.326729-51.147079-16.490707-16.113811-30.350366-30.537007-41.594631-43.276816-13.486376-14.234147-24.727029-27.355668-33.723164-39.342888L383.031717 262.97469c-9.737886 12.742217-20.988172 26.232205-33.723164 40.467556-10.49529 12.741012-23.605974 26.787313-39.344092 42.152148-15.738119 15.362427-33.348676 31.664083-52.83408 48.900153-22.480102 19.490221-43.280428 41.591019-62.391345 66.325272-19.109712 24.734254-35.029656 51.897259-47.77669 81.496241-12.734992 29.602594-21.544485 61.267882-26.41403 94.991045-4.868341 33.724368-3.933928 68.947891 2.808056 105.668161 5.995416 32.976597 18.361941 66.135018 37.103187 99.481286 18.734021 33.353493 44.019771 63.513604 75.869291 90.492376 31.851929 26.987201 70.633688 48.906173 116.350093 65.766551 45.710384 16.862786 98.171181 25.284546 157.378778 25.284546 57.704829 0 109.226396-7.304317 154.568313-21.914156 45.338305-14.614655 84.492143-34.285497 117.467535-59.019751 32.975392-24.728233 59.389422-53.769698 79.254131-87.114761 19.859892-33.353493 33.159626-68.763657 39.904018-106.22929C908.749902 704.002049 909.683111 662.604897 904.063387 625.50171L904.063387 625.50171zM689.210975 831.490443c-6.575812 4.552856-14.926528 6.840723-25.058167 6.840723l-106.337663 0 0 30.375653c0 9.116549-3.799064 17.969391-11.391171 26.587426-7.595719 8.603585-17.467265 12.403853-29.626677 11.391171-12.144963 0-22.280215-2.787586-30.379265-8.356736-8.101458-5.576375-12.657927-15.446717-13.665793-29.621861l0-30.375653-103.298412 0c-10.125619 0-18.488376-2.789994-25.06178-8.362757-6.581833-5.566742-9.374235-12.403853-8.360349-20.502903 0-9.112937 3.299345-16.456991 9.876362-22.028549 6.583037-5.567946 14.43283-8.350716 23.544563-8.350716l103.298412 0 0-53.164015-103.298412 0c-10.125619 0-18.228282-3.045272-24.304375-9.123774-6.071277-6.073686-9.116549-13.160053-9.116549-21.261512 0-8.100254 3.299345-15.699586 9.876362-22.78475 6.583037-7.088776 14.43283-10.632562 23.544563-10.632562l103.298412 0 1.514809-31.897686c-18.224669-18.235506-34.929713-35.449901-50.12356-51.65041-13.166074-14.181165-25.324283-27.346035-36.46138-39.49461l-22.785954-21.269941c-5.061003-6.073686-9.617472-14.435238-13.671813-25.066596-4.054342-10.631358-2.022956-21.52281 6.076094-32.662316 9.110528-10.123211 20.24883-12.904776 33.420924-8.349511 13.160053 4.556468 23.791411 10.378488 31.901299 17.472081 4.047117 5.063412 11.137097 12.654314 21.268737 22.779933l72.904697 72.923963c17.216803-16.207733 32.916389-30.887412 47.091533-44.060711 12.150984-11.137097 24.309192-22.027345 36.460175-32.658703 12.153392-10.632562 20.761794-17.970595 25.824001-22.024937 9.112937-8.097846 19.238556-12.144963 30.382877-12.144963 11.135893 0 20.247625 4.546835 27.337606 13.659772 13.16487 15.193847 8.097846 32.913981-15.187826 53.168831-6.076094 5.063412-15.187826 13.923479-27.340014 26.586222-12.157004 12.657927-24.314008 25.059372-36.452951 37.213968-14.18839 15.187826-29.881955 30.8838-47.097554 47.089125l0 28.862048 98.741944 0c14.17394 0 24.556041 3.293325 31.134261 9.869137 6.587854 6.591466 9.877566 13.925887 9.877566 22.029754 0 9.118957-3.035639 16.967546-9.117753 23.544563-6.077298 6.585445-16.199304 9.373031-30.375653 8.356736l-98.745556 1.52685-1.516013 51.639573 97.21991 0c28.357513 0 42.533861 10.63497 42.533861 31.898891C698.582802 819.589921 695.801237 826.932771 689.210975 831.490443L689.210975 831.490443zM689.210975 831.490443" p-id="4047"></path></svg>