<?xml version="1.0" standalone="no"?><!DOCTYPE svg PUBLIC "-//W3C//DTD SVG 1.1//EN" "http://www.w3.org/Graphics/SVG/1.1/DTD/svg11.dtd"><svg t="1510298034725" class="icon" style="" viewBox="0 0 1024 1024" version="1.1" xmlns="http://www.w3.org/2000/svg" p-id="12579" xmlns:xlink="http://www.w3.org/1999/xlink" width="44" height="44"><defs><style type="text/css"></style></defs><path d="M529.90976 761.40544h39.60832v-68.45952h-39.60832v68.45952z m0-177.39776h39.60832v-69.3248h-39.60832v69.3248z m0 89.56416h39.60832v-70.18496h-39.60832v70.18496z m-62.0032-106.35776a253.79328 253.79328 0 0 1-38.60992 28.8512c5.74464-8.32512 11.05408-17.72544 15.93344-28.20608a568.46848 568.46848 0 0 0 14.208-33.37216h-37.1712v71.9104c5.74464-1.4336 11.6992-3.01568 17.72544-4.74112 6.03136-1.72032 12.55936-3.584 19.44576-5.59616-3.73248 4.30592-8.82688 9.32864-15.35488 15.06816a748.3392 748.3392 0 0 1-21.81632 18.51392v71.90528c0 27.26912-3.23072 48.94208-9.68704 65.01888-6.45632 16.07168-16.72192 28.6976-30.78656 37.888-5.4528 3.15392-10.55232 4.87936-15.2832 5.16608-4.736 0.28672-9.1136-2.44224-13.1328-8.18176l-33.152-46.07488c7.46496 0 13.70624-0.86016 18.72896-2.58048a25.37472 25.37472 0 0 0 12.26752-8.82688c3.15904-4.16256 5.4528-9.69216 6.89152-16.57856s2.1504-15.35488 2.1504-25.40544v-31.0016c-3.73248 2.01216-7.3216 3.80416-10.76736 5.38112-3.44064 1.58208-6.74304 2.944-9.90208 4.09088-2.87232 0.57344-5.52448 0.4352-7.96672-0.43008-2.44224-0.86016-3.94752-3.584-4.52096-8.18176l-10.76224-52.5312c12.63104 0.86016 27.26912 0.43008 43.91936-1.29024V534.4768h-33.5872l-10.33216-19.37408h43.91936V425.12384l79.37024 9.04704-17.36704 14.63296v66.30912h4.30592l17.72544-15.92832 17.72544 29.28128a589.83424 589.83424 0 0 0 16.43008-52.31616 648.43264 648.43264 0 0 0 11.19744-51.02592l54.75328 14.63808c4.30592 1.4336 7.10656 3.3024 8.3968 5.59616 1.29024 2.29888 1.08032 5.88288-0.64512 10.76736-4.87424 13.20448-11.62752 26.27072-20.23424 39.18336h60.13952c-4.87936-14.35648-9.97888-26.40896-15.43168-36.16768-5.45792-9.75872-12.27264-19.23072-20.59776-28.416 17.22368 0.56832 32.01024 2.72384 44.34944 6.45632 12.3392 3.73248 21.95968 7.96672 28.8512 12.70272 6.89152 4.736 11.19232 9.54368 12.91776 14.42304 1.72032 4.87936 0.7168 8.89344-3.0208 12.05248l-27.55584 18.944h50.08896l17.65376-15.92832 21.5296 35.30752h-69.3248v69.3248h25.83552l17.21856-16.36352 21.95968 35.7376h-65.01376v70.18496h25.83552l17.21856-16.36352 21.95968 35.7376h-65.01376v68.45952h30.14144l17.65376-16.3584 21.5296 35.73248h-170.94144v28.42112h-62.0032v-241.98144z m223.25248-369.47968c36.37248 22.04672 65.6384 167.34208-24.50944 172.8256-3.9936 0.26112-7.88992 0.37888-11.62752 0.37888-184.98048 0-108.19584-287.28832-108.19584-287.28832-262.22592 78.26432-199.83872 289.98656-199.83872 289.98656s-68.74112-27.99104-49.65376-139.29472C186.20928 305.64352 212.45952 490.70592 212.45952 490.70592s-68.51072-29.73184-52.73088-123.54048c-30.848 56.26368-44.4672 112.8192-44.52864 181.49888v0.57344c0.06144 218.37824 176.86528 395.40224 394.96192 395.40224 218.15808 0 394.98752-177.08544 394.98752-395.51488 0-153.07264-86.9376-285.66016-213.9904-351.39072z" p-id="12580" fill="#ff4249"></path></svg>