<?xml version="1.0" standalone="no"?><!DOCTYPE svg PUBLIC "-//W3C//DTD SVG 1.1//EN" "http://www.w3.org/Graphics/SVG/1.1/DTD/svg11.dtd"><svg t="1510826052972" class="icon" style="" viewBox="0 0 1024 1024" version="1.1" xmlns="http://www.w3.org/2000/svg" p-id="13928" xmlns:xlink="http://www.w3.org/1999/xlink" width="60" height="60"><defs><style type="text/css"></style></defs><path d="M661.312 42.304h192s128 0 128 128v192h-64v-192s0-64-64-64h-192v-64z" fill="" p-id="13929"></path><path d="M663.936 106.304c-17.664 0-32-14.336-32-32s14.336-32 32-32h64c17.664 0 32 14.336 32 32s-14.336 32-32 32h-64zM981.312 361.28c0 17.664-14.336 32-32 32s-32-14.336-32-32v-64c0-17.664 14.336-32 32-32s32 14.336 32 32v64zM113.856 359.744c0 17.664-14.336 32-32 32s-32-14.336-32-32v-189.44s0-128 128-128h192v64h-192s-64 0-64 64v189.44" fill="" p-id="13930"></path><path d="M368.768 42.304c17.664 0 32 14.336 32 32s-14.336 32-32 32h-64c-17.664 0-32-14.336-32-32s14.336-32 32-32h64zM982.848 658.496v192s0 128-128 128h-192v-64h192s64 0 64-64v-192h64z" fill="" p-id="13931"></path><path d="M918.848 661.12c0-17.664 14.336-32 32-32s32 14.336 32 32v64c0 17.664-14.336 32-32 32s-32-14.336-32-32v-64zM663.936 978.496c-17.664 0-32-14.336-32-32s14.336-32 32-32h64c17.664 0 32 14.336 32 32s-14.336 32-32 32h-64zM369.856 980.032h-192s-128 0-128-128v-192h64v192s0 64 64 64h192v64z" fill="" p-id="13932"></path><path d="M367.232 916.032c17.664 0 32 14.336 32 32s-14.336 32-32 32h-64c-17.664 0-32-14.336-32-32s14.336-32 32-32h64zM49.856 661.12c0-17.664 14.336-32 32-32s32 14.336 32 32v64c0 17.664-14.336 32-32 32s-32-14.336-32-32v-64zM982.848 512c0 15.488-12.096 28.032-27.072 28.032H76.864c-14.912 0-27.008-12.544-27.008-28.032s12.096-28.032 27.072-28.032H955.84c14.912 0 27.008 12.544 27.008 28.032z" fill="" p-id="13933"></path></svg>