<?xml version="1.0" encoding="utf-8"?>
<!-- Generator: Adobe Illustrator 21.0.0, SVG Export Plug-In . SVG Version: 6.00 Build 0)  -->
<svg version="1.1" id="图层_1" xmlns="http://www.w3.org/2000/svg" xmlns:xlink="http://www.w3.org/1999/xlink" x="0px" y="0px"
	 viewBox="0 0 60 60" style="enable-background:new 0 0 60 60;" xml:space="preserve">
<style type="text/css">
	.st0{fill:#01B3F0;}
</style>
<path class="st0" d="M51.6,20.9c-2-0.5-6.9-0.5-13.9-0.7c0.3-1.5,0.4-2.9,0.4-5.4c0-5.9-4.3-11.1-8.1-11.1c-2.7,0-4.9,2.2-4.9,4.9
	c0,3.3-1.1,9-6.6,11.9c-0.4,0.2-1.6,0.8-1.7,0.9l0.1,0.1c-0.9-0.7-2.1-1.3-3.3-1.3H8.7c-2.7,0-4.9,2.2-4.9,4.9v26.2
	c0,2.7,2.2,4.9,4.9,4.9h4.9c2,0,3.6-1.2,4.4-2.8c0,0,0.1,0,0.1,0c0.1,0,0.2,0.1,0.4,0.1c0,0,0,0,0.1,0c0.9,0.2,2.8,0.7,6.6,1.6
	c0.8,0.2,5.2,1.1,9.8,1.1h9c2.7,0,4.8-1,5.9-3.2c1.1-1.9,6.4-12.1,6.4-26.5C56.2,24.5,54.8,21.8,51.6,20.9L51.6,20.9z M15.2,51.3
	c0,0.9-0.7,1.6-1.6,1.6H8.7c-0.9,0-1.6-0.7-1.6-1.6l0-26.2c0-0.9,0.7-1.6,1.6-1.6h4.9c0.9,0,1.6,0.7,1.6,1.6V51.3L15.2,51.3z
	 M52.9,27.6c-0.7,16.5-6,23.9-6,23.9c-0.5,0.9-1.3,1.4-3,1.4h-9c-4.5,0-9-1-9.1-1c-6.8-1.6-7.2-1.7-7.6-1.8L18.5,26
	c0-2.5,0.1-1.9,0-1.8c7.5-3.1,9.8-9.9,9.8-15.5C28.4,7.9,29,7,30,7c1.7,0,4.8,3.5,4.8,7.8c0,3.9-0.2,4.6-1.5,8.6
	c16.4,0,16.3,0.2,17.7,0.6c1.8,0.5,1.9,2,1.9,2.5C52.9,27.1,52.9,27,52.9,27.6L52.9,27.6z"/>
</svg>
