<?xml version="1.0" encoding="utf-8"?>
<!-- Generator: Adobe Illustrator 21.0.0, SVG Export Plug-In . SVG Version: 6.00 Build 0)  -->
<svg version="1.1" id="图层_1" xmlns="http://www.w3.org/2000/svg" xmlns:xlink="http://www.w3.org/1999/xlink" x="0px" y="0px"
	 viewBox="0 0 60 60" style="enable-background:new 0 0 60 60;" xml:space="preserve">
<style type="text/css">
	.st0{fill:#FFFFFF;}
	.st1{fill:#01B3F0;}
</style>
<circle class="st0" cx="29.9" cy="29.9" r="29.8"/>
<path class="st1" d="M45.5,38.1c-0.3-0.3-0.6-0.3-0.8,0l-5.5,5.5L36.7,41c-0.3-0.2-0.6-0.2-0.8-0.1L35.9,41c-0.3,0.3-0.3,0.6,0,0.8
	l2.9,2.9c0,0.1,0,0.1,0.1,0.1l0.1,0.1c0.3,0.3,0.6,0.3,0.8,0l5.9-5.9C45.8,38.8,45.8,38.4,45.5,38.1L45.5,38.1z M21.3,31.2h15.9
	c0.8,0,1.4-0.2,1.8-0.8c0.5-0.5,0.8-1.1,0.8-1.8s-0.2-1.4-0.8-1.9c-0.5-0.5-1.1-0.8-1.8-0.8H21.3c-0.8,0-1.4,0.3-1.8,0.8
	c-0.5,0.5-0.8,1.1-0.8,1.9c0,0.8,0.2,1.4,0.8,1.8C19.9,31,20.5,31.2,21.3,31.2L21.3,31.2z"/>
<path class="st1" d="M29.9,0C13.4,0,0,13.4,0,29.9s13.4,29.9,29.9,29.9s29.9-13.4,29.9-29.9S46.5,0,29.9,0z M37.2,9.8h0.1
	c0.2,0,0.5,0,0.7,0.1c0.2,0,0.5,0.1,0.8,0.3c0.3,0.2,0.8,0.5,1.2,0.9c0.5,0.3,1,0.9,1.8,1.5l1.8,1.8c0.5,0.5,0.8,0.9,1,1.2
	c0.2,0.3,0.3,0.6,0.5,0.8c0.1,0.2,0.1,0.5,0.1,0.6v0.6h-6.3c-0.3,0-0.5-0.1-0.8-0.3s-0.3-0.5-0.5-0.8c-0.1-0.2-0.3-0.5-0.3-0.9
	c-0.1-0.3-0.1-0.5-0.1-0.7L37.2,9.8L37.2,9.8z M18.8,50c-0.6,0-1.1-0.1-1.8-0.5c-0.7-0.3-1.3-0.8-1.8-1.3c-0.6-0.5-1-1.1-1.4-1.8
	c-0.3-0.7-0.5-1.4-0.5-2.1V15.3c0-0.6,0.1-1.2,0.5-1.8c0.3-0.7,0.6-1.3,1.1-1.8c0.5-0.5,1-1,1.6-1.4c0.6-0.4,1.2-0.5,1.8-0.5h16.3
	V15c0,0.6,0.1,1.2,0.2,1.8c0.1,0.6,0.5,1.2,0.8,1.7c0.3,0.6,0.8,1,1.4,1.4c0.6,0.3,1.3,0.5,2,0.5h6.1v14.1c-1.4-0.8-2.9-1.4-4.5-1.4
	c-2.7,0-5.1,1.3-6.6,3.3H21.3c-0.8,0-1.4,0.2-1.8,0.8c-0.5,0.5-0.8,1.1-0.8,1.8c0,0.8,0.2,1.4,0.8,1.9c0.5,0.5,1.1,0.8,1.8,0.8h11.1
	c0.1,4.3,3.5,7.8,7.7,8.1H18.8L18.8,50z M40.7,48.7c-3.9,0-7-3.2-7-7.2s3.1-7.2,7-7.2s7,3.2,7,7.2C47.8,45.5,44.7,48.7,40.7,48.7
	L40.7,48.7z"/>
</svg>
