<?xml version="1.0" standalone="no"?><!DOCTYPE svg PUBLIC "-//W3C//DTD SVG 1.1//EN" "http://www.w3.org/Graphics/SVG/1.1/DTD/svg11.dtd"><svg t="1510815307016" class="icon" style="" viewBox="0 0 1024 1024" version="1.1" xmlns="http://www.w3.org/2000/svg" p-id="7691" xmlns:xlink="http://www.w3.org/1999/xlink" width="60" height="60"><defs><style type="text/css"></style></defs><path d="M200.75952 193.168h255.952c35.472 0 58.08 29.296 49.344 64.768l-119.232 510.848c-8.24 35.968-44.208 64.752-79.664 64.752H51.20752c-35.472 0-58.08-29.28-49.344-64.752L121.09552 257.936c8.24-35.472 43.696-64.768 79.664-64.768" fill="#E03333" p-id="7692"></path><path d="M435.12752 193.168h293.984c35.472 0 19.552 29.296 11.312 64.768l-119.232 510.848c-8.224 35.968-5.664 64.752-41.632 64.752H285.57552c-35.984 0-58.08-29.28-49.344-64.752l119.248-510.848c8.208-35.472 43.68-64.768 79.648-64.768" fill="#004889" p-id="7693"></path><path d="M717.30352 193.168h255.44c35.968 0 58.08 29.296 49.36 64.768l-119.248 510.848c-8.256 35.968-44.224 64.752-79.68 64.752H567.73552c-35.968 0-58.08-29.28-49.344-64.752l119.232-510.848c8.24-35.472 44.208-64.768 79.68-64.768" fill="#008089" p-id="7694"></path><path d="M674.64752 656.752h24.16l7.184-23.12h-24.16l-7.184 23.12z m19.52-64.256l-8.24 27.248s9.248-4.624 13.872-6.16c5.152-1.024 12.336-2.064 12.336-2.064l5.648-19.024h-23.616z m11.824-39.056l-8.224 26.224s8.752-4.096 13.888-5.152c5.136-1.536 12.336-1.536 12.336-1.536l5.664-19.008-23.664-0.528z m53.44 0l-31.344 103.312h8.224l-6.672 21.056h-8.24l-2.064 6.688h-29.808l2.064-6.688h-60.128l6.16-19.536h6.192l31.84-104.848 6.176-21.056h30.336l-3.088 10.784s8.24-5.664 15.936-7.712c7.712-2.032 51.408-2.528 51.408-2.528l-6.704 21.056-10.288-0.528z" fill="#FFFFFF" p-id="7695"></path><path d="M772.79152 532.368h32.368l0.528 11.808c0 2.064 1.52 3.088 5.12 3.088h6.688l-6.176 20.032h-17.456c-14.928 1.056-21.088-5.632-20.576-12.848l-0.496-22.08z m4.112 94.032h-30.832l5.136-17.44h34.96l5.136-15.936h-34.96l6.16-20.064h96.64l-6.176 20.064h-32.368l-5.136 15.936h32.368l-5.152 17.44H807.73552l-6.176 7.216h14.384l3.6 22.096c0.528 2.064 0.528 3.632 1.04 4.624 0.496 1.024 5.136 1.024 7.696 1.024h4.112l-6.672 22.624h-10.784c-1.552 0-4.144 0-7.744-0.528-3.056-0.496-5.648-2.064-7.68-3.056a10.384 10.384 0 0 1-5.648-7.712l-3.616-22.096-15.936 22.096c-5.136 6.688-11.824 12.336-23.632 12.336H728.05552l5.648-19.536h8.752c2.56 0 4.608-1.024 6.176-2.064 1.52-0.496 3.056-1.568 4.608-4.096l23.664-32.928z m-337.136-48.272h81.696l-6.144 19.536h-32.4l-5.12 16.432h33.408l-6.176 20.032h-33.424l-8.192 26.752c-1.04 3.056 7.68 3.6 11.28 3.6l16.432-2.096-6.672 22.128H446.93552c-3.072 0-5.136-0.496-8.736-1.024-3.088-1.024-4.624-2.064-6.176-4.624-1.536-2.032-3.6-4.128-2.048-8.72l10.784-36h-18.496l6.176-20.528h18.496l5.136-16.432h-18.496l6.192-19.056z m54.976-34.976h33.408l-6.16 20.56h-45.744l-5.136 4.096c-2.048 2.096-3.088 1.056-5.648 2.592a30.432 30.432 0 0 1-14.928 4.096h-14.384l6.176-19.536h4.624c3.6 0 6.176-0.496 7.696-1.008 1.552-1.024 3.088-3.088 5.152-6.192l8.208-15.408h33.424l-6.688 10.8z m64.24 33.408s9.264-8.192 24.688-10.784c3.6-0.496 25.696-0.496 25.696-0.496l3.6-11.312h-47.28l-6.704 22.592z m44.224 8.752h-46.768l-3.088 9.248h40.608c4.624-0.528 5.648 0 6.16 0l3.088-9.248z m-60.656-52.944h28.288l-4.128 14.368s9.264-7.184 15.424-9.744c6.192-2.56 20.576-4.624 20.576-4.624h46.24l-15.424 52.432c-2.56 8.72-5.648 14.88-7.68 17.472-1.552 2.56-3.6 5.12-7.728 7.184-4.112 2.064-7.2 3.088-10.8 3.6-3.072 0-7.696 0.528-14.384 0.528h-44.704l-12.336 41.088c-1.008 4.096-1.536 6.192-1.008 7.184 0.496 1.056 2.048 2.064 4.096 2.064l19.536-2.064-6.688 22.624h-22.096c-7.184 0-11.824 0-15.424-0.496-3.616 0-6.672 0-9.248-2.064-2.048-2.064-5.136-4.128-5.136-6.688 0-2.064 1.04-6.16 2.56-11.312l40.064-131.552z" fill="#FFFFFF" p-id="7696"></path><path d="M625.28752 616.688l-2.544 12.32c-1.04 4.128-2.048 6.656-5.136 9.248-3.104 2.56-6.704 5.664-15.424 5.664l-15.936 0.496v14.368c0 4.16 1.024 3.6 1.536 4.16a4.128 4.128 0 0 0 2.064 1.008h5.12l14.944-1.008-6.192 20.528h-17.472c-12.336 0-21.056 0-24.16-2.56-3.088-2.064-3.088-4.096-3.088-8.224l1.04-55.504h27.728l-0.496 11.28h6.688c2.048 0 3.6 0 4.624-1.008 1.008-0.528 1.536-1.568 2.048-3.088l2.576-8.752 22.08 1.072zM231.09552 356.608c-1.024 4.624-18.512 86.336-19.024 86.336-3.6 16.448-6.672 28.272-15.936 35.984-5.136 4.624-11.824 6.672-19.008 6.672-11.824 0-18.512-5.648-19.536-16.944v-3.6l3.6-22.128s18.512-74.512 22.112-84.288c0-0.496 0-1.024 0.512-1.024-36.496 0.528-42.672 0-43.184-0.528 0 0.528-1.024 5.136-1.024 5.136l-19.024 84.304-1.536 7.2-3.088 23.12c0 6.672 1.536 12.32 4.112 17.472 8.736 15.44 33.408 17.472 47.28 17.472 17.984 0 34.944-4.096 46.256-10.784 20.048-11.84 25.184-30.336 29.808-46.272l2.064-8.224s19.008-77.6 22.624-87.36c0-0.528 0-1.024 0.512-1.024-27.76-0.496-35.472-1.024-37.52-1.52m105.872 154.176c-12.848 0-17.472 0-32.368 0.528l-0.528-1.024c1.552-5.664 2.576-11.312 4.112-16.976l2.048-7.712c2.576-12.336 5.664-26.208 5.664-30.832 0.512-2.56 1.024-9.232-6.176-9.232-3.088 0-6.176 1.552-9.76 3.072-2.048 6.672-5.648 24.656-7.2 32.896-3.6 17.472-4.112 19.536-5.664 28.288l-1.024 1.008c-13.36 0-17.984 0-32.896 0.528l-0.512-1.024c2.576-10.32 5.152-20.56 7.712-31.36 6.176-28.256 7.712-39.04 9.76-53.44l1.024-1.024a480.256 480.256 0 0 0 34.432-5.648l1.536 1.552-2.56 8.72c2.56-1.536 5.136-3.072 8.224-4.64a51.76 51.76 0 0 1 20.56-4.624c7.2 0 14.912 2.048 18 10.272 3.072 7.2 1.024 16.448-3.072 33.92l-2.064 8.752c-4.112 19.52-4.624 23.12-7.2 36.496l-2.048 1.504z m52.416-18H371.89552c-4.608 0-9.744 0.528-16.96 0.528l-0.512-0.528-0.512-0.496c2.064-7.184 3.088-10.288 4.112-12.832 1.04-2.576 2.064-5.136 3.616-12.848 2.048-9.776 3.6-16.448 4.624-22.624 1.024-5.664 1.536-10.8 2.576-16.432l0.496-0.528 0.512-0.528c7.696-1.024 12.864-2.048 17.472-2.56 5.152-0.528 10.288-1.552 17.984-3.088l0.528 0.496v0.528l-4.64 18.512a248.64 248.64 0 0 0-4.112 18.48c-3.072 12.864-4.112 18-4.608 21.072-0.528 3.088-1.04 5.152-2.064 11.84l-0.512 0.496-0.512 0.512z m81.728-45.216c-0.496 3.088-3.6 15.936-7.68 21.072-2.592 3.6-6.208 6.16-9.776 6.16-1.024 0-7.2 0-7.712-9.248 0-4.624 1.024-9.232 2.064-14.384 3.6-14.896 7.184-27.744 17.488-27.744 8.704-0.528 9.216 8.704 5.616 24.144m33.424 1.04c4.592-20.064 1.008-28.784-3.6-34.448-6.704-8.736-18.528-11.296-30.848-11.296-7.216 0-24.688 0.496-38.56 13.36-9.76 9.248-14.384 21.584-16.96 33.392-2.576 11.84-6.176 33.92 13.872 42.16 6.176 2.56 14.912 3.6 21.056 3.6 14.912 0 29.808-4.128 41.12-15.936 8.768-10.288 12.864-24.688 13.92-30.832m334.56-44.72c-15.936 3.072-20.528 3.6-35.968 5.664l-1.008 1.008c0 1.04-0.528 2.592-0.528 3.6a20.672 20.672 0 0 0-11.296-9.248c-6.688-2.544-23.12 1.04-37.008 13.36-9.76 9.264-14.384 21.6-16.96 33.392-2.576 11.84-6.176 33.936 13.856 41.648 6.192 2.56 12.336 3.6 18.016 3.056 6.16-0.496 11.808-3.6 16.96-7.68-0.496 1.536-1.04 3.6-1.552 5.152l1.04 1.008c14.384-0.496 18.992-0.496 34.416-0.496l1.552-1.024c2.048-13.36 4.624-26.208 10.272-51.92 2.576-12.336 5.664-24.144 8.752-36.496l-0.544-1.024z m-50.864 66.304c-2.592 3.6-8.736 6.16-12.336 6.16-1.024 0-7.184 0-7.696-9.248 0-4.64 1.008-9.232 2.048-14.384 3.6-14.384 7.184-27.248 17.456-27.248 6.704 0 9.792 6.16 9.264 16.464-0.512 2.544-1.008 5.136-2.048 8.224-1.008 4.608-2.064 8.72-3.072 13.36-1.072 2.032-2.08 4.608-3.616 6.672m-195.824 40.592c-12.848 0-17.488 0-32.368 0.528l-0.512-1.024c1.008-5.664 2.56-11.312 4.112-16.976l1.552-7.712c2.56-12.336 5.664-26.208 5.664-30.832 0-2.56 1.008-9.232-6.192-9.232-3.056 0-6.16 1.552-9.744 3.072-2.048 6.672-5.648 24.656-7.184 32.896-3.616 17.472-4.128 19.536-5.664 28.288l-1.04 1.008c-13.344 0-17.984 0-32.88 0.528l-0.512-1.024c2.56-10.32 5.12-20.56 7.712-31.36 6.144-28.256 7.68-39.04 9.728-53.44l1.04-1.024a481.344 481.344 0 0 0 34.416-5.648l1.04 1.552-2.592 8.72c2.592-1.536 5.152-3.072 8.256-4.64 7.68-3.6 15.92-4.624 20.528-4.624 7.184 0 14.944 2.048 18 10.272 3.072 7.2 1.024 16.448-3.056 33.92l-2.08 8.752c-4.128 19.52-4.624 23.12-7.184 36.496 1.008-0.032-1.04 1.504-1.04 1.504z" fill="#FFFFFF" p-id="7697"></path><path d="M703.94352 356.608h-10.816c-27.728 0.496-39.04 0-43.664-0.512a76.64 76.64 0 0 0-1.04 5.648l-9.744 46.256-25.184 102.784c24.144-0.496 34.416-0.496 38.528 0 1.04-4.624 6.688-31.872 6.688-31.872s4.64-20.048 5.136-21.04c0 0 1.552-2.08 3.088-3.104h2.048c21.088 0 44.72 0 63.2-13.872 12.336-9.248 21.072-23.136 25.184-40.064 1.04-4.128 1.552-9.264 1.552-13.888 0-6.688-1.552-12.832-5.152-17.488-9.232-12.352-27.728-12.848-49.824-12.848m13.856 47.792c-2.048 10.272-8.736 19.008-17.456 23.136-7.216 3.6-15.936 3.6-24.688 3.6h-5.648l0.512-2.592s10.8-46.24 10.8-45.712v-4.656l4.096 0.496 22.64 2.064c8.736 4.144 12.336 12.88 9.744 23.664m-314.528 27.232c8.736-6.16 9.76-13.888 2.576-18.48-7.2-4.144-20.048-3.088-28.288 3.072-8.72 5.648-9.76 13.872-2.56 18.512 7.2 4.096 20.048 3.072 28.272-3.104m542.736-28.272l-1.008-1.552c-15.936 3.088-18.512 3.6-33.408 5.664l-1.04 1.024v0.496c-10.784 25.2-10.272 19.536-19.536 39.6v-2.576l-2.048-42.672-1.552-1.552c-16.432 3.088-16.944 3.6-32.368 5.664l-1.008 1.024v1.552c2.064 9.76 1.552 7.696 3.6 23.12 1.008 7.696 2.064 15.424 3.056 22.608 1.568 12.336 2.592 19.008 4.128 38.048-10.272 16.944-12.864 23.632-22.608 38.528l-7.184 11.312c-1.04 1.024-1.552 2.064-2.576 2.064-1.008 0.496-2.56 0.496-4.624 0.496h-4.112l-5.664 19.536 20.064 0.496c11.808 0 19.008-5.664 23.12-12.848l12.336-21.6 1.52-1.536c7.168-16.88 70.912-126.896 70.912-126.896" fill="#FFFFFF" p-id="7698"></path></svg>