<?xml version="1.0" encoding="utf-8"?>
<!-- Generator: Adobe Illustrator 21.0.0, SVG Export Plug-In . SVG Version: 6.00 Build 0)  -->
<svg version="1.1" id="图层_1" xmlns="http://www.w3.org/2000/svg" xmlns:xlink="http://www.w3.org/1999/xlink" x="0px" y="0px"
	 viewBox="0 0 60 60" style="enable-background:new 0 0 60 60;" xml:space="preserve">
<style type="text/css">
	.st0{fill:#666666;}
</style>
<path class="st0" d="M29.8,2.1c1,0,2,0.1,3,0.4c1,0.2,1.9,0.6,2.8,1c0.8,0.4,1.6,0.8,2.3,1.4c0.6,0.4,1.1,1,1.6,1.6
	c0.9,1.2,1.6,2.5,2,3.9c0.4,1.3,0.7,2.7,0.9,4.1c0.2,1.5,0.3,3,0.3,4.5c0.2,0.2,0.4,0.4,0.6,0.7c0.1,0.3,0.3,0.7,0.3,1
	c0.1,0.5,0.1,1,0,1.5c-0.1,0.6-0.2,1.3-0.4,1.9c-0.2,0.4-0.5,0.8-0.8,1.1c-0.3,0.3-0.6,0.5-1,0.6c-0.2,0.6-0.3,1.2-0.5,1.8
	c-0.2,0.5-0.4,1-0.6,1.4c-0.2,0.4-0.5,0.8-0.8,1.1c-0.7,0.6-1.2,1-1.6,1.4c-0.5,0.6-0.8,1.2-0.8,2c-0.1,0.6-0.1,1.1-0.1,1.7
	c0,0.6,0.2,1.2,0.5,1.7c0.3,0.6,0.7,1.2,1.2,1.6c0.7,0.6,1.5,1.1,2.3,1.4c0.9,0.4,1.9,0.7,2.9,1c1,0.3,2,0.6,3,1
	c0.9,0.4,1.8,0.8,2.6,1.4c0.8,0.6,1.3,1.4,1.6,2.4c0.2,0.7,0.3,1.5,0.4,2.2c0.1,0.9,0.1,1.8,0.1,2.6c0,0.8-0.1,1.7-0.2,2.5
	c-0.1,0.6-0.2,1.2-0.5,1.8c-0.4,0.4-0.9,0.7-1.5,0.8c-1,0.3-2,0.6-3,0.8c-1.2,0.2-2.5,0.5-4,0.6c-1.5,0.2-3,0.3-4.5,0.5
	c-1.5,0.1-3,0.2-4.3,0.3c-1.4,0.1-2.6,0.1-3.6,0.1s-2.2,0-3.5-0.1c-1.4-0.1-2.7-0.2-4.2-0.3c-1.4-0.1-2.9-0.3-4.3-0.4
	c-1.4-0.2-2.7-0.3-3.9-0.5c-1.2-0.2-2.1-0.4-2.9-0.6c-0.5-0.1-1-0.3-1.5-0.6c-0.5-0.8-0.8-1.8-0.8-2.7c-0.2-2-0.1-3.9,0.2-5.9
	c0.1-1.2,0.6-2.3,1.5-3.1c0.9-0.7,1.9-1.3,3-1.7c1.1-0.4,2.3-0.8,3.5-1.1c1.1-0.3,2.2-0.8,3.2-1.4c0.6-0.4,1.2-0.8,1.7-1.4
	c0.4-0.4,0.6-0.8,0.8-1.3c0.2-0.4,0.3-0.9,0.3-1.4c0-0.5,0-1-0.1-1.6c0-0.8-0.3-1.5-0.8-2c-0.5-0.5-1-1-1.6-1.5
	c-0.3-0.3-0.6-0.7-0.7-1.1c-0.2-0.5-0.4-0.9-0.6-1.4c-0.2-0.6-0.3-1.1-0.5-1.8c-0.3-0.1-0.5-0.2-0.7-0.4c-0.3-0.2-0.5-0.5-0.7-0.8
	c-0.3-0.4-0.5-0.9-0.6-1.4c-0.2-0.5-0.3-1.1-0.2-1.7c0-0.5,0.1-0.9,0.3-1.3c0.2-0.4,0.4-0.8,0.7-1.2c0-1.4,0-2.8,0.2-4.2
	c0.2-1.3,0.4-2.6,0.8-3.8c0.3-1.3,0.9-2.5,1.6-3.7c0.6-1,1.4-1.8,2.2-2.5C23,4,23.8,3.5,24.7,3.1c0.8-0.4,1.7-0.6,2.6-0.8
	C28.1,2.2,28.9,2.1,29.8,2.1L29.8,2.1z"/>
</svg>
