<?xml version="1.0" standalone="no"?><!DOCTYPE svg PUBLIC "-//W3C//DTD SVG 1.1//EN" "http://www.w3.org/Graphics/SVG/1.1/DTD/svg11.dtd"><svg t="1510913245459" class="icon" style="" viewBox="0 0 1024 1024" version="1.1" xmlns="http://www.w3.org/2000/svg" p-id="1591" xmlns:xlink="http://www.w3.org/1999/xlink" width="32" height="32"><defs><style type="text/css"></style></defs><path d="M863.488 183.232c-8.384 0.32-16.64 0.384-24.704 0.384-211.584 0-304.896-91.648-305.6-92.48l-21.12-21.824-21.248 21.76c-0.832 1.024-92.224 92.544-305.6 92.544-8.064 0-16.256-0.064-24.704-0.384l-29.696-0.96v415.616c0 108.864 38.464 267.648 370.752 389.12L512 990.72l10.368-3.776c332.352-121.472 370.752-280.256 370.752-389.12V182.272l-29.632 0.96z m-384.128 522.24L287.872 534.848l50.816-41.408 101.824 75.52s140.544-146.24 276.352-214.592l19.392 21.952S566.592 517.76 479.36 705.472z" p-id="1592"></path></svg>