<?xml version="1.0" standalone="no"?><!DOCTYPE svg PUBLIC "-//W3C//DTD SVG 1.1//EN" "http://www.w3.org/Graphics/SVG/1.1/DTD/svg11.dtd"><svg t="1510826263487" class="icon" style="" viewBox="0 0 1024 1024" version="1.1" xmlns="http://www.w3.org/2000/svg" p-id="17622" xmlns:xlink="http://www.w3.org/1999/xlink" width="60" height="60"><defs><style type="text/css"></style></defs><path d="M205.832755 145.617007c-89.836238 0-111.465885-19.376266-112.475779-44.958897 1.008887-18.076393 50.949792-32.544152 81.953428-32.544152L761.044727 68.113958c21.628641 0 42.321897 5.940551 60.274444 16.788602-21.387998-40.555841-62.990987-68.458308-109.494428-68.458308L126.09042 16.444251c-68.397896 0-125.500689 59.944189-125.500689 131.759412l0 614.863162c0 3.619709 0 7.239418 0.240643 10.595326-0.240643 17.306135-0.240643 33.061685-0.240643 46.762207 44.557155 160.684862 169.577566 191.438794 210.913733 197.367263 12.064353 4.139255 24.609992 6.207373 37.635909 6.207373l585.733316 0c68.397896 0 125.500689-59.9311 125.500689-131.760419L960.373379 765.650462 535.85454 765.650462c-115.407793-1.550585-144.462123-80.858957-144.462123-180.841455 0-99.984511 32.227994-180.844475 147.659952-180.844475l421.322016 0L960.374386 277.377426c0-71.81623-57.102793-131.760419-125.500689-131.760419L205.832755 145.617007zM529.702546 455.635244c-44.556148 0-86.133965 57.875065-86.133965 129.173762 0 71.298697 41.57681 129.172755 86.133965 129.172755l442.977843 0c20.667077 0 36.168895-20.925843 35.424816-38.751525L1008.105204 495.937354c0.744079-17.571949-14.756732-40.303116-35.424816-40.303116L529.702546 455.634238zM514.44137 584.809007c0-42.889773 35.928252-80.609253 76.785149-80.609253s76.786155 37.71948 76.786155 80.609253-34.463252 79.055647-75.294976 79.055647C552.102451 663.863647 514.44137 627.697773 514.44137 584.809007z" p-id="17623"></path></svg>