<?xml version="1.0" standalone="no"?><!DOCTYPE svg PUBLIC "-//W3C//DTD SVG 1.1//EN" "http://www.w3.org/Graphics/SVG/1.1/DTD/svg11.dtd"><svg t="1510824688344" class="icon" style="" viewBox="0 0 1152 1024" version="1.1" xmlns="http://www.w3.org/2000/svg" p-id="11997" xmlns:xlink="http://www.w3.org/1999/xlink" width="67.5" height="60"><defs><style type="text/css"></style></defs><path d="M418.880013 647.553871a32.923577 32.923577 0 0 1-18.082379 4.989713 37.31623 37.31623 0 0 1-32.838282-19.873558l-3.283828-4.989713-105.125151-231.829745c-1.663238-3.326475-1.663238-4.989713-1.663238-8.316188a20.044146 20.044146 0 0 1 19.70297-19.873558c4.947066 0 8.230894 1.705885 11.514722 3.326475l123.20753 89.431011c8.188247 6.610304 19.702969 9.936779 31.175045 9.936779 6.567656 0 13.17796-1.663238 19.745616-3.326475l581.450835-261.640082C939.558702 81.157469 768.756986 0 574.925826 0 257.887135 0 0 216.9459 0 483.618342c0 145.725209 77.191287 276.566574 198.73558 364.334346a37.785348 37.785348 0 0 1 16.461788 31.473575c0 4.989713-1.663238 8.316188-1.663238 11.600017-9.851485 36.463288-24.650035 94.420724-26.270626 97.704552-1.663238 4.989713-3.283828 9.936779-3.283828 14.926492a20.044146 20.044146 0 0 0 19.702969 19.873558 23.583857 23.583857 0 0 0 11.514723-3.326476l126.448711-72.841281c9.894132-4.989713 19.745617-8.316188 31.217692-8.316188 6.567656 0 11.514722 1.705885 16.419141 3.326475 59.151556 16.547083 121.544292 26.483862 187.263504 26.483862 317.038691 0 574.925826-216.9459 574.925826-483.618342 0-81.114822-23.029445-157.325226-65.676565-223.556203l-663.631835 382.544667-3.283829 3.326475z" fill="#00C901" p-id="11998"></path></svg>