<?xml version="1.0" standalone="no"?><!DOCTYPE svg PUBLIC "-//W3C//DTD SVG 1.1//EN" "http://www.w3.org/Graphics/SVG/1.1/DTD/svg11.dtd"><svg t="1512972040763" class="icon" style="" viewBox="0 0 1252 1024" version="1.1" xmlns="http://www.w3.org/2000/svg" p-id="1961" xmlns:xlink="http://www.w3.org/1999/xlink" width="39.125" height="32"><defs><style type="text/css"></style></defs><path d="M849.855955 309.417879a382.90902 382.90902 0 0 1 42.798501 2.567911C854.166376 133.011628 662.780649 0 444.309585 0 200.067709 0 0 166.4556 0 377.849626c0 122.06744 66.55167 222.215933 177.797203 299.956354l-44.449301 133.653605 155.32799-77.954413c55.576911 10.990044 100.179063 22.316361 155.633693 22.316362 13.940083 0 27.757885-0.703118 41.483976-1.773081a331.031123 331.031123 0 0 1-13.756662-93.102026c0-194.121774 166.684878-351.559118 377.757915-351.559118m-241.994954-129.465466a68.691595 68.691595 0 1 1-68.691595 68.691594 68.691595 68.691595 0 0 1 68.691595-68.691594M296.929888 318.695983a68.691595 68.691595 0 1 1 68.691595-68.691594 68.691595 68.691595 0 0 1-68.691595 68.691594m955.323691 338.429149c0-177.629066-177.751347-322.425567-377.406356-322.425566-211.470452 0-377.926052 144.796501-377.926052 322.425566 0 177.934769 166.501455 322.425567 377.910767 322.425567 44.235308 0 88.883316-11.173466 133.317331-22.301076l121.884018 66.750377-33.413401-111.031541c89.173735-66.918514 155.603123-155.633693 155.603122-255.843327m-493.482005-49.783828a48.912573 48.912573 0 1 1 48.912573-48.912573 48.912573 48.912573 0 0 1-48.912573 48.912573m244.241876 2.705477a48.912573 48.912573 0 1 1 48.912573-48.912573 48.912573 48.912573 0 0 1-48.912573 48.912573m0 0z" p-id="1962" data-spm-anchor-id="a313x.7781069.0.i6."></path></svg>